<svg xmlns="http://www.w3.org/2000/svg" viewBox="0 0 256 256" fill="currentColor"><rect x="24" y="48" width="208" height="160" rx="12" style="mix-blend-mode:destination-out"/><path d="M24 60a12 12 0 0112-12h176a12 12 0 0112 12v136a12 12 0 01-12 12H36a12 12 0 01-12-12z" opacity="0"/><path d="M24 60a12 12 0 0112-12h176a12 12 0 0112 12v136a12 12 0 01-12 12H36a12 12 0 01-12-12V60z" fill="none" stroke="currentColor" stroke-width="12"/><path d="M56 96l32 28-32 28" fill="none" stroke="currentColor" stroke-width="14" stroke-linecap="round" stroke-linejoin="round"/><line x1="104" y1="152" x2="152" y2="152" stroke="currentColor" stroke-width="14" stroke-linecap="round"/></svg>