<svg xmlns="http://www.w3.org/2000/svg" viewBox="0 0 256 256" fill="currentColor"><path d="M117.25 157.92a60 60 0 10-66.5 0 95.83 95.83 0 00-47.22 37.71 8 8 0 0013.4 8.74 80 80 0 01134.14 0 8 8 0 0013.4-8.74 95.83 95.83 0 00-47.22-37.71zM40 108a44 44 0 1144 44 44.05 44.05 0 01-44-44zm170.53 88.91a8 8 0 01-11.06 2.54A103.42 103.42 0 00152 180a8 8 0 010-16 119.33 119.33 0 0154.07 12.75 8 8 0 014.46 10.16zM152 144a8 8 0 01-5.76-13.55 40 40 0 10.13-58.76 8 8 0 1111.5-11.14 56 56 0 01-.18 82.3A8 8 0 01152 144z"/></svg>
